<?xml version="1.0" encoding="UTF-8"?>
<svg version="1.1" xmlns="http://www.w3.org/2000/svg" width="512" height="512">
<path d="M0 0 C1.61865967 -0.0129007 1.61865967 -0.0129007 3.27001953 -0.02606201 C4.44923981 -0.03032196 5.62846008 -0.03458191 6.84341431 -0.03897095 C8.08947449 -0.04714844 9.33553467 -0.05532593 10.61935425 -0.06375122 C14.75084109 -0.08859859 18.88229129 -0.10528243 23.01382446 -0.11953735 C24.44118887 -0.12490072 25.86855321 -0.13027824 27.29591751 -0.13566971 C33.24084535 -0.15729876 39.18577055 -0.17602875 45.13072777 -0.1872921 C53.61959773 -0.20348557 62.10800669 -0.23654997 70.59670293 -0.29369295 C76.58081679 -0.33258474 82.56480841 -0.35194785 88.54904521 -0.35721266 C92.11439269 -0.36084246 95.67924798 -0.37260525 99.24445724 -0.4053154 C127.78014275 -0.65421815 127.78014275 -0.65421815 138.67788696 5.15390015 C139.7731369 5.72871124 140.86838684 6.30352234 141.99682617 6.89575195 C160.2097699 16.83189096 172.45144992 31.2386296 178.67788696 51.15390015 C186.54412543 80.10979519 173.68005994 107.36676365 159.67788696 132.15390015 C157.23238262 136.31510439 154.52102999 140.25428867 151.67788696 144.15390015 C151.2439563 144.7547644 150.81002563 145.35562866 150.36294556 145.97470093 C144.95519436 153.43795412 139.35233761 160.70751927 133.36538696 167.71640015 C132.89842407 168.26344604 132.43146118 168.81049194 131.9503479 169.37411499 C131.05389909 170.40670525 130.14398065 171.42781832 129.21849442 172.43446541 C127.65904198 174.13314111 127.65904198 174.13314111 126.28025436 175.96197319 C122.94925705 179.91047945 120.48275406 181.61067113 115.27853394 182.06970215 C113.13913465 182.12321458 110.9985643 182.13850244 108.85855103 182.12313843 C107.68526245 182.14182983 106.51197388 182.16052124 105.3031311 182.17977905 C101.43263366 182.23088881 97.56431422 182.23005371 93.69351196 182.22421265 C91.67718887 182.23329183 89.66091898 182.24646414 87.64462066 182.2598933 C81.30621287 182.30124794 74.96852719 182.30511312 68.6300354 182.28622437 C62.11530546 182.26752796 55.60341024 182.31491876 49.08920503 182.39467824 C43.47602549 182.46086512 37.86374677 182.48393583 32.25018859 182.47356594 C28.90579945 182.46790195 25.56517841 182.48317664 22.22086334 182.5308876 C-0.80521307 182.82097951 -0.80521307 182.82097951 -6.90643692 177.37045097 C-8.97243433 175.12188611 -10.65439183 172.70752471 -12.32211304 170.15390015 C-13.7437667 168.47369632 -15.17919228 166.80494056 -16.63461304 165.15390015 C-18.21403307 163.16479156 -19.7747122 161.16752342 -21.32211304 159.15390015 C-21.84176636 158.48358765 -22.36141968 157.81327515 -22.89682007 157.12265015 C-44.42711891 129.19410948 -63.95822476 96.60293102 -61.32211304 60.15390015 C-59.28752071 44.97486254 -52.05653671 31.82686719 -41.32211304 21.15390015 C-40.53836304 20.28765015 -39.75461304 19.42140015 -38.94711304 18.52890015 C-28.56996473 9.14005168 -14.4605928 0.08601545 0 0 Z M23.69351196 63.4234314 C15.67051255 74.29179688 14.60449407 86.0743006 15.67788696 99.15390015 C18.18008285 111.27882651 25.87019954 120.91389055 35.67788696 128.15390015 C46.98402012 134.44340468 59.28399947 136.09249721 71.99038696 133.4703064 C83.48342132 129.53590117 93.37029347 121.89731227 99.31851196 111.2046814 C104.45394989 100.15168424 106.07580097 86.84298299 102.05288696 75.09140015 C96.53124921 62.53350873 87.85278633 53.37309988 75.12319946 48.02890015 C55.79369126 41.11227101 36.63854728 48.464221 23.69351196 63.4234314 Z " fill="#fff" transform="translate(196.32211303710938,330.8460998535156)"/>
<path d="M0 0 C0.66 0 1.32 0 2 0 C2.43755615 0.98693848 2.8751123 1.97387695 3.32592773 2.99072266 C4.98621917 6.7272466 6.66178989 10.4567644 8.34155273 14.18457031 C9.06011517 15.7846483 9.77477634 17.38648524 10.48510742 18.99023438 C17.10711181 33.9283531 24.46590292 47.1945124 36 59 C36.86625 59.886875 37.7325 60.77375 38.625 61.6875 C39.40875 62.450625 40.1925 63.21375 41 64 C41.67482422 64.72509766 41.67482422 64.72509766 42.36328125 65.46484375 C46.1759732 69.48567273 50.31035278 72.87591205 54.6875 76.25 C80.48885322 96.22069432 98.69311261 123.3724701 104 156 C104.26490234 157.02480469 104.26490234 157.02480469 104.53515625 158.0703125 C104.875 160.125 104.875 160.125 104 164 C101.2410021 166.10165276 98.37323669 167.6309051 95.296875 169.23046875 C86.21869749 174.10299768 79.08401285 181.64468453 72 189 C68.58170633 185.8163718 65.95470389 182.26194815 63.3125 178.4375 C56.82616241 169.21558347 49.70596725 160.65818133 42.109375 152.328125 C40.24324433 150.26846967 38.42930212 148.17611105 36.625 146.0625 C33.2794216 142.21119463 29.67153777 138.64279255 26.04296875 135.06225586 C23.45828537 132.49925903 20.9790796 129.90070579 18.625 127.125 C13.46603093 121.06606335 7.66073493 115.58412348 2 110 C-1.23048748 111.4199255 -3.38242488 113.13619387 -5.86328125 115.6328125 C-6.94706055 116.71949219 -6.94706055 116.71949219 -8.05273438 117.828125 C-8.79845703 118.58609375 -9.54417969 119.3440625 -10.3125 120.125 C-11.04662109 120.85976562 -11.78074219 121.59453125 -12.53710938 122.3515625 C-16.65538115 126.50272198 -20.58523283 130.75921059 -24.40307617 135.18701172 C-27.47257497 138.67181497 -30.83489947 141.85054889 -34.15625 145.09375 C-37.62450472 148.56446928 -40.80876429 152.27587582 -44 156 C-44.56348145 156.65693848 -45.12696289 157.31387695 -45.70751953 157.99072266 C-53.8614514 167.57011758 -61.28058576 177.36350788 -68 188 C-70.94779134 186.6849293 -72.83822521 185.31883004 -75 182.9375 C-82.23956076 175.49684033 -90.89360455 169.76866876 -100.015625 164.8984375 C-102 163 -102 163 -102.43359375 159.859375 C-101.93075582 155.38366446 -101.00624546 151.21087281 -99.8125 146.875 C-99.58401367 146.03533691 -99.35552734 145.19567383 -99.12011719 144.33056641 C-94.31941832 127.09229352 -87.01750875 110.43818324 -75 97 C-74.31421875 96.18402344 -73.6284375 95.36804688 -72.921875 94.52734375 C-67.22105201 87.89347239 -60.81415517 82.45654571 -54 77 C-50.32858513 74.00578945 -46.66460572 71.00253749 -43 68 C-42.34128906 67.46761719 -41.68257812 66.93523437 -41.00390625 66.38671875 C-36.49137635 62.65810273 -32.69616845 58.53376172 -29 54 C-28.28714844 53.13632812 -27.57429688 52.27265625 -26.83984375 51.3828125 C-20.58862225 43.46960243 -16.21871653 35.10560958 -12 26 C-11.49936035 24.92524414 -10.9987207 23.85048828 -10.48291016 22.74316406 C-6.96113926 15.1746378 -3.46951718 7.59261075 0 0 Z " fill="#fff" transform="translate(255,0)"/>
<path d="M0 0 C89.1 0 178.2 0 270 0 C270 28.04285714 270 28.04285714 262.359375 36.90234375 C255.60276577 43.35901005 247.53665574 45.60295944 238.41862488 45.52139282 C237.49651901 45.52904392 236.57441314 45.53669501 235.62436467 45.54457796 C232.5568754 45.5650962 229.49014482 45.55728147 226.42260742 45.54931641 C224.21417045 45.55801734 222.00573952 45.56838587 219.7973175 45.58029175 C213.81369617 45.60702399 207.83032786 45.60823438 201.84665847 45.60316515 C196.84435163 45.60102226 191.84209563 45.61080142 186.8397997 45.62037599 C174.35964274 45.64381696 161.87960828 45.64212577 149.39945076 45.62926237 C138.58302048 45.6189294 127.76695074 45.64142557 116.95059177 45.67945881 C105.82186174 45.71828782 94.69327807 45.73413316 83.56447679 45.72721231 C77.32550707 45.72359293 71.08686751 45.72879533 64.84795189 45.75664139 C58.97818394 45.78186046 53.10913535 45.77785205 47.23937798 45.75181961 C45.09164432 45.74710225 42.94385954 45.75250664 40.79618454 45.76906586 C28.33452876 45.85818119 18.04671537 45.88716642 8.10338116 37.376688 C-2.42429794 26.28560766 0 15.13180238 0 0 Z " fill="#fff" transform="translate(121,256)"/>
<path d="M0 0 C7.12440582 3.12778792 12.13986608 10.03817709 17.109375 15.8359375 C18.44607473 17.36596157 19.81406439 18.8689127 21.203125 20.3515625 C36.95295606 37.1683176 48.68482898 55.36965796 59 76 C20.72 76 -17.56 76 -57 76 C-47.48521249 56.97042498 -37.03769428 41.05278374 -23.3125 25.125 C-22.79010742 24.51857666 -22.26771484 23.91215332 -21.72949219 23.28735352 C-18.48095632 19.56664674 -15.08718851 16.04568567 -11.57299805 12.57568359 C-9.70758935 10.70709013 -7.96400353 8.7578327 -6.25 6.75 C-4.24329367 4.40571691 -2.2089565 2.15572863 0 0 Z " fill="#fff" transform="translate(255,150)"/>
<path d="M0 0 C1.07911652 0.00141495 2.15823303 0.0028299 3.27005005 0.00428772 C6.70349952 0.00986781 10.13688286 0.0224167 13.5703125 0.03515625 C15.90364489 0.04017382 18.2369783 0.04473628 20.5703125 0.04882812 C26.27866825 0.05983072 31.98698565 0.07654904 37.6953125 0.09765625 C33.14979524 5.55487928 28.31756582 10.59350821 23.26953125 15.5859375 C22.48133499 16.37034714 21.69313873 17.15475677 20.88105774 17.9629364 C18.38406382 20.44779314 15.88384521 22.92936506 13.3828125 25.41015625 C10.07137665 28.69507283 6.76321416 31.98323501 3.45703125 35.2734375 C2.69355881 36.0286116 1.93008636 36.78378571 1.14347839 37.56184387 C0.442173 38.25984604 -0.25913239 38.95784821 -0.98168945 39.67700195 C-1.60090775 40.29098343 -2.22012604 40.9049649 -2.85810852 41.53755188 C-4.39950101 43.05377659 -4.39950101 43.05377659 -5.3046875 45.09765625 C-26.0946875 45.09765625 -46.8846875 45.09765625 -68.3046875 45.09765625 C-63.11271265 29.52173169 -50.87777154 16.97628382 -36.81640625 8.8515625 C-24.67978591 2.7900024 -13.58608548 -0.06736978 0 0 Z " fill="#fff" transform="translate(405.3046875,180.90234375)"/>
<path d="M0 0 C6.75855155 -0.07667264 13.51698908 -0.12885867 20.27587891 -0.16479492 C22.5705179 -0.17979151 24.86512867 -0.20019551 27.15966797 -0.22631836 C30.47630825 -0.2631058 33.79256642 -0.2798182 37.109375 -0.29296875 C38.11925476 -0.30845261 39.12913452 -0.32393646 40.1696167 -0.33988953 C59.39007633 -0.34433313 76.87658126 8.04502125 90.6875 21.125 C96.95720188 27.6312944 104.03630351 36.01044506 106 45 C97.90695195 45.18581824 89.81480282 45.32773121 81.72014523 45.41449738 C77.96085415 45.45615395 74.203028 45.51259534 70.44458008 45.60351562 C66.81344411 45.69080078 63.1837116 45.73834578 59.55160713 45.75901794 C58.16999788 45.7737374 56.7884608 45.80248461 55.40745354 45.84584045 C44.64313135 46.17016682 44.64313135 46.17016682 40.84999084 43.46885681 C39.05790892 41.40601806 37.55192581 39.24753813 36 37 C34.66412434 35.57176446 33.29593844 34.17321506 31.90063477 32.80297852 C31.18041641 32.08606339 30.46019806 31.36914825 29.71815491 30.63050842 C28.96682785 29.88747971 28.21550079 29.14445099 27.44140625 28.37890625 C26.65225327 27.59353989 25.86310028 26.80817352 25.05003357 25.99900818 C22.55662123 23.51771066 20.05996928 21.03971366 17.5625 18.5625 C14.24847745 15.27496188 10.93770926 11.98419662 7.62890625 8.69140625 C6.86340958 7.93420792 6.0979129 7.17700958 5.30921936 6.39686584 C4.61106613 5.70201584 3.9129129 5.00716583 3.19360352 4.29125977 C2.57518082 3.67807388 1.95675812 3.064888 1.31959534 2.43312073 C0 1 0 1 0 0 Z " fill="#fff" transform="translate(69,181)"/>
<path d="M0 0 C4.61581142 2.18643699 6.72864085 4.49599804 9 9 C9.82885269 14.54808604 9.7240695 19.47140883 7.3125 24.5625 C4.21064779 27.8320199 1.61649202 29.75850523 -2.90234375 30.43359375 C-9.05071801 30.44150672 -13.31314296 30.4465054 -18 26 C-21.88937897 20.55860924 -21.79042609 15.48149391 -21 9 C-16.63929544 -0.20593186 -9.3488659 -1.1401056 0 0 Z " fill="#fff" transform="translate(262,406)"/>
</svg>
